<mxfile host="Electron" agent="Mozilla/5.0 (X11; Linux x86_64) AppleWebKit/537.36 (KHTML, like Gecko) draw.io/24.7.17 Chrome/128.0.6613.36 Electron/32.0.1 Safari/537.36" version="24.7.17">
  <diagram name="Page-1" id="78lKDK3KxwIhj_C8nFNk">
    <mxGraphModel dx="1434" dy="880" grid="1" gridSize="10" guides="1" tooltips="1" connect="1" arrows="1" fold="1" page="1" pageScale="1" pageWidth="850" pageHeight="1100" math="0" shadow="0">
      <root>
        <mxCell id="0" />
        <mxCell id="1" parent="0" />
        <mxCell id="Dbsak8q-TzQb4EYVdu6L-3" value="" style="edgeStyle=orthogonalEdgeStyle;rounded=0;orthogonalLoop=1;jettySize=auto;html=1;" edge="1" parent="1" source="Dbsak8q-TzQb4EYVdu6L-1" target="Dbsak8q-TzQb4EYVdu6L-2">
          <mxGeometry relative="1" as="geometry" />
        </mxCell>
        <mxCell id="Dbsak8q-TzQb4EYVdu6L-1" value="API" style="rounded=0;whiteSpace=wrap;html=1;" vertex="1" parent="1">
          <mxGeometry x="40" y="80" width="120" height="60" as="geometry" />
        </mxCell>
        <mxCell id="Dbsak8q-TzQb4EYVdu6L-5" value="" style="edgeStyle=orthogonalEdgeStyle;rounded=0;orthogonalLoop=1;jettySize=auto;html=1;" edge="1" parent="1" source="Dbsak8q-TzQb4EYVdu6L-2" target="Dbsak8q-TzQb4EYVdu6L-4">
          <mxGeometry relative="1" as="geometry" />
        </mxCell>
        <mxCell id="Dbsak8q-TzQb4EYVdu6L-2" value="Python" style="rounded=0;whiteSpace=wrap;html=1;" vertex="1" parent="1">
          <mxGeometry x="240" y="80" width="120" height="60" as="geometry" />
        </mxCell>
        <mxCell id="Dbsak8q-TzQb4EYVdu6L-7" value="" style="edgeStyle=orthogonalEdgeStyle;rounded=0;orthogonalLoop=1;jettySize=auto;html=1;" edge="1" parent="1" source="Dbsak8q-TzQb4EYVdu6L-4" target="Dbsak8q-TzQb4EYVdu6L-6">
          <mxGeometry relative="1" as="geometry" />
        </mxCell>
        <mxCell id="Dbsak8q-TzQb4EYVdu6L-4" value="PostgreSQL" style="rounded=0;whiteSpace=wrap;html=1;" vertex="1" parent="1">
          <mxGeometry x="440" y="80" width="120" height="60" as="geometry" />
        </mxCell>
        <mxCell id="Dbsak8q-TzQb4EYVdu6L-6" value="S3" style="rounded=0;whiteSpace=wrap;html=1;" vertex="1" parent="1">
          <mxGeometry x="640" y="80" width="120" height="60" as="geometry" />
        </mxCell>
      </root>
    </mxGraphModel>
  </diagram>
</mxfile>
